<svg xmlns="http://www.w3.org/2000/svg" width="43.398" height="49.218" viewBox="0 0 43.398 49.218">
  <g id="css3-seeklogo.com" transform="translate(-0.445 -8.923)">
    <path id="Tracé_22" data-name="Tracé 22" d="M22.117,119.983l-17.723-4.92L.445,70.766h43.4l-3.954,44.291-17.772,4.927Z" transform="translate(0 -61.843)" fill="#264de4"/>
    <path id="Tracé_23" data-name="Tracé 23" d="M142.36,129.906l3.379-37.849H128v41.83l14.36-3.981Z" transform="translate(-105.856 -79.513)" fill="#2965f1"/>
    <path id="Tracé_24" data-name="Tracé 24" d="M53.669,188.636l.487,5.433H66.313v-5.433Z" transform="translate(-44.169 -159.662)" fill="#ebebeb"/>
    <path id="Tracé_25" data-name="Tracé 25" d="M47.917,123.995l.494,5.433H61.54v-5.433Z" transform="translate(-39.396 -106.017)" fill="#ebebeb"/>
    <path id="Tracé_26" data-name="Tracé 26" d="M69.873,242.5l-.024.006L63.8,240.875l-.387-4.333H57.958l.761,8.53,11.129,3.089.025-.007V242.5Z" transform="translate(-47.729 -199.418)" fill="#ebebeb"/>
    <path id="Tracé_30" data-name="Tracé 30" d="M140.518,134.991l.981-11H127.89v5.433h7.656l-.494,5.563H127.89v5.433h6.69l-.631,7.046-6.059,1.635v5.652l11.138-3.087.082-.918,1.277-14.3.133-1.459Z" transform="translate(-105.764 -106.017)" fill="#fff"/>
  </g>
</svg>
