<svg xmlns="http://www.w3.org/2000/svg" width="87" height="19.415" viewBox="0 0 87 19.415">
  <g id="original-wordmark" transform="translate(-1.813 -42.72)">
    <path id="path4" d="M34.492,62.146V43.112h1.033v2.994a3.916,3.916,0,0,0,.337-.422,5.117,5.117,0,0,1,4.667-2.9,5.481,5.481,0,0,1,5.391,2.9,9.306,9.306,0,0,1,.225,8.533,5.788,5.788,0,0,1-6.4,3.086,5.18,5.18,0,0,1-4.133-2.727v7.57Zm1.033-12.3c.091.928.127,1.589.232,2.235a4.689,4.689,0,0,0,4.274,4.33,4.857,4.857,0,0,0,5.335-3.086,8.273,8.273,0,0,0-.183-6.8,4.759,4.759,0,0,0-5.012-2.769,4.632,4.632,0,0,0-4.14,3.423,23.474,23.474,0,0,0-.506,2.671Z" transform="translate(-5.688 -0.011)" fill="#ccc"/>
    <path id="path6" d="M72.668,52.428a5.567,5.567,0,0,1-5.44,4.92c-4.33.218-6.361-2.657-6.684-5.975a9.573,9.573,0,0,1,.843-5.272,5.883,5.883,0,0,1,6.122-3.282A5.623,5.623,0,0,1,72.5,47.1a28.88,28.88,0,0,1,.485,3.163H61.6c-.211,3.008,1.406,5.426,3.7,6.01a4.86,4.86,0,0,0,6.178-3.247C71.677,52.33,72.035,52.231,72.668,52.428ZM61.6,49.3H71.775c-.063-3.205-2.059-5.525-4.766-5.56C63.945,43.691,61.738,45.927,61.6,49.3Z" transform="translate(-10.21 -0.007)" fill="#ccc"/>
    <path id="path8" d="M77.775,52.492h1a4,4,0,0,0,2.348,3.444,6.136,6.136,0,0,0,5.328-.141,2.4,2.4,0,0,0,1.406-2.355,2.172,2.172,0,0,0-1.462-2.172c-1.1-.408-2.263-.633-3.381-.991a24.776,24.776,0,0,1-3.4-1.244c-1.8-.879-1.912-4.3.127-5.384a7.176,7.176,0,0,1,6.86-.105,3.613,3.613,0,0,1,1.828,3.683h-.858c0-.042-.077-.077-.077-.119-.105-2.734-2.4-3.578-4.857-3.339a6.445,6.445,0,0,0-2.109.64,2.251,2.251,0,0,0,.183,4.091c1.082.394,2.214.647,3.325.956.893.246,1.82.408,2.685.7a3.17,3.17,0,0,1,2.179,2.861,3.381,3.381,0,0,1-1.82,3.514c-2.348,1.328-6.214.977-7.936-.7a4.688,4.688,0,0,1-1.364-3.339Z" transform="translate(-13.223 -0.001)" fill="#ccc"/>
    <path id="path10" d="M104.317,47.231h-.935a2.318,2.318,0,0,0-.063-.344,3.058,3.058,0,0,0-2.488-2.938,6.136,6.136,0,0,0-3.943.19,2.4,2.4,0,0,0-1.736,2.284,2.207,2.207,0,0,0,1.687,2.221c1.406.436,2.847.7,4.274,1.1a11.949,11.949,0,0,1,1.364.415,3.514,3.514,0,0,1,.19,6.544,7.823,7.823,0,0,1-6.326.063A4.386,4.386,0,0,1,93.7,52.5h.914a5.124,5.124,0,0,0,7.8,3.261,2.509,2.509,0,0,0,1.35-2.348,2.172,2.172,0,0,0-1.483-2.158c-1.1-.408-2.263-.626-3.381-.984a24.9,24.9,0,0,1-3.423-1.23c-1.757-.865-1.9-4.259.105-5.342a7.078,7.078,0,0,1,6.973-.077,3.676,3.676,0,0,1,1.764,3.606Z" transform="translate(-15.993 -0.004)" fill="#ccc"/>
    <path id="path12" d="M29.839,57.059a1.61,1.61,0,0,1-2-.759c-1.146-1.715-2.411-3.353-3.627-5.026l-.527-.7c-1.448,1.94-2.9,3.8-4.217,5.736a1.546,1.546,0,0,1-1.9.745l5.433-7.289-5.054-6.586a1.68,1.68,0,0,1,2,.7c1.174,1.715,2.474,3.353,3.767,5.089,1.3-1.722,2.587-3.367,3.789-5.068a1.511,1.511,0,0,1,1.884-.7l-1.961,2.6c-.879,1.16-1.743,2.327-2.657,3.458a.7.7,0,0,0,0,1.047C26.458,52.532,28.124,54.767,29.839,57.059Z" transform="translate(-2.743 -0.062)" fill="#ccc"/>
    <path id="path14" d="M59,43.113V44.1a5.1,5.1,0,0,0-5.426,5.265v7.732H52.568V43.169h.984v2.854A5.91,5.91,0,0,1,59,43.113Z" transform="translate(-8.835 -0.068)" fill="#ccc"/>
    <path id="path16" d="M1.813,49.609c.148-.7.239-1.469.443-2.186a6.086,6.086,0,0,1,9.58-3.444c2,1.567,2.5,3.789,2.4,6.291H2.986c-.183,4.47,3.043,7.169,7.169,5.792a4.281,4.281,0,0,0,2.72-3.029c.218-.7.569-.822,1.237-.619a5.707,5.707,0,0,1-2.727,4.168,6.607,6.607,0,0,1-7.7-.984A6.923,6.923,0,0,1,1.96,51.535a3.367,3.367,0,0,0-.141-.7Q1.813,50.207,1.813,49.609ZM3,49.307H13.171c-.063-3.24-2.109-5.539-4.836-5.56C5.3,43.7,3.127,45.954,2.994,49.293Z" transform="translate(0 0)" fill="#ccc"/>
  </g>
</svg>
