<svg xmlns="http://www.w3.org/2000/svg" width="51.237" height="49.973" viewBox="0 0 51.237 49.973">
  <path id="Tracé_37" data-name="Tracé 37" d="M25.619,0a25.622,25.622,0,0,0-8.1,49.928c1.28.237,1.75-.556,1.75-1.232,0-.611-.024-2.629-.035-4.77C12.108,45.476,10.6,40.9,10.6,40.9,9.439,37.943,7.76,37.155,7.76,37.155c-2.324-1.59.175-1.557.175-1.557a5.385,5.385,0,0,1,3.927,2.64c2.285,3.917,5.993,2.784,7.455,2.13a5.456,5.456,0,0,1,1.627-3.426C15.253,36.294,9.272,34.1,9.272,24.281a9.915,9.915,0,0,1,2.64-6.876,9.205,9.205,0,0,1,.248-6.78s2.151-.689,7.047,2.626a24.3,24.3,0,0,1,12.83,0c4.89-3.315,7.038-2.626,7.038-2.626a9.194,9.194,0,0,1,.251,6.78,9.9,9.9,0,0,1,2.637,6.876c0,9.84-5.993,12.006-11.7,12.641A6.124,6.124,0,0,1,32,41.666c0,3.428-.03,6.187-.03,7.03,0,.682.461,1.481,1.76,1.229A25.622,25.622,0,0,0,25.619,0ZM9.6,36.495c-.056.127-.257.165-.439.078s-.29-.257-.23-.385.256-.168.441-.08S9.66,36.367,9.6,36.495Zm1.26,1.124c-.122.113-.361.061-.523-.118a.392.392,0,0,1-.075-.532c.126-.113.358-.06.526.118S10.983,37.5,10.855,37.619Zm.865,1.439c-.157.109-.414.007-.572-.221s-.157-.5,0-.61.412-.011.573.215S11.88,38.946,11.72,39.058Zm1.462,1.666c-.14.155-.44.113-.658-.1a.493.493,0,0,1-.146-.655c.142-.155.443-.112.664.1S13.332,40.571,13.182,40.724Zm1.89.562c-.062.2-.35.292-.64.207s-.479-.323-.421-.526.35-.3.642-.206S15.132,41.082,15.071,41.286Zm2.15.239c.007.211-.239.386-.543.39s-.554-.164-.557-.372.241-.387.547-.392S17.222,41.315,17.222,41.525Zm2.113-.081c.036.206-.175.418-.478.474s-.573-.073-.61-.277.179-.423.476-.478S19.3,41.234,19.334,41.444Z" fill="#fff"/>
</svg>
