<svg xmlns="http://www.w3.org/2000/svg" xmlns:xlink="http://www.w3.org/1999/xlink" width="58.355" height="44.377" viewBox="0 0 58.355 44.377">
  <defs>
    <linearGradient id="linear-gradient" y1="0.5" x2="1" y2="0.5" gradientUnits="objectBoundingBox">
      <stop offset="0" stop-opacity="0.102"/>
      <stop offset="1" stop-opacity="0.2"/>
    </linearGradient>
  </defs>
  <g id="google-gmail-seeklogo.com" transform="translate(-0.215)">
    <path id="Tracé_47" data-name="Tracé 47" d="M54.875,45.026H3.89A3.652,3.652,0,0,1,.249,41.384V4.551A3.652,3.652,0,0,1,3.89.909H54.875a3.652,3.652,0,0,1,3.642,3.642V41.384a3.619,3.619,0,0,1-3.642,3.642Z" transform="translate(-0.026 -0.701)" fill="#e3e3e3"/>
    <path id="Tracé_48" data-name="Tracé 48" d="M30.133,76.912l21.8-17.532.156-.936L29.612,42.264,29.56,76.132Z" transform="translate(-22.626 -32.587)" fill="#231f20" opacity="0.1"/>
    <path id="Tracé_49" data-name="Tracé 49" d="M3.89,49.056A3.619,3.619,0,0,1,.249,45.414V8.528C.249,6.5,1.861,6.135,3.89,6.135s3.642.416,3.642,2.393V49.056Z" transform="translate(-0.026 -4.73)" fill="aqua"/>
    <path id="Tracé_50" data-name="Tracé 50" d="M3.89,6.655c2.6,0,3.121.78,3.121,1.873V48.535H3.89A3.131,3.131,0,0,1,.769,45.414V8.528c0-1.145.52-1.873,3.121-1.873Zm0-.52c-2.029,0-3.642.416-3.642,2.393V45.414A3.619,3.619,0,0,0,3.89,49.056H7.532V8.528c0-2.029-1.613-2.393-3.642-2.393Z" transform="translate(-0.026 -4.73)" fill="#15ffff"/>
    <path id="Tracé_51" data-name="Tracé 51" d="M226.57,49.056h-3.642V8.424c0-2.029,1.613-2.289,3.642-2.289s3.642.26,3.642,2.289V45.466a3.608,3.608,0,0,1-3.642,3.59Z" transform="translate(-171.721 -4.73)" fill="#05cccc"/>
    <path id="Tracé_52" data-name="Tracé 52" d="M226.57,6.655c2.341,0,3.122.468,3.122,1.769V45.466a3.131,3.131,0,0,1-3.122,3.121h-3.122V8.424c0-1.353.78-1.769,3.122-1.769Zm0-.52c-2.029,0-3.642.26-3.642,2.289V49.108h3.642a3.619,3.619,0,0,0,3.642-3.642V8.424c0-2.029-1.613-2.289-3.642-2.289Z" transform="translate(-171.721 -4.73)" fill="#12cccc"/>
    <path id="Tracé_53" data-name="Tracé 53" d="M40.294,58.79,1.58,19.776l2.036.828L30.565,40.009,59.543,18.76V55.2A3.608,3.608,0,0,1,55.9,58.79Z" transform="translate(-1.052 -14.465)" fill="url(#linear-gradient)"/>
    <path id="Tracé_54" data-name="Tracé 54" d="M29.347,26.877,1.826,6.9A3.676,3.676,0,0,1,.941,1.8a3.773,3.773,0,0,1,5.2-.78L29.4,17.928,52.81.812a3.619,3.619,0,0,1,5.1.832,3.619,3.619,0,0,1-.832,5.1L29.347,26.877Z" transform="translate(-0.042 -0.084)" fill="aqua"/>
    <path id="Tracé_55" data-name="Tracé 55" d="M54.849.52h0a3.18,3.18,0,0,1,2.549,1.3,3.2,3.2,0,0,1-.676,4.37L29.3,26.169,2.1,6.4a3.176,3.176,0,0,1-.78-4.37,3.276,3.276,0,0,1,2.6-1.3,3.008,3.008,0,0,1,1.873.624l23.2,16.856.312.208.312-.208L52.976,1.093A3.447,3.447,0,0,1,54.849.52Zm0-.52a3.582,3.582,0,0,0-2.133.676L29.3,17.793,6.05.884A3.627,3.627,0,0,0,3.865.208,3.745,3.745,0,0,0,.847,1.717a3.736,3.736,0,0,0,.936,5.1L29.3,26.845,56.982,6.659a3.705,3.705,0,0,0,.832-5.1A3.565,3.565,0,0,0,54.849,0Z" transform="translate(0 0)" fill="#15ffff"/>
  </g>
</svg>
