<svg xmlns="http://www.w3.org/2000/svg" width="43.94" height="49.862" viewBox="0 0 43.94 49.862">
  <g id="Guides_to_delete" transform="translate(-208.627 -101.984)">
    <g id="Groupe_4" data-name="Groupe 4" transform="translate(208.627 101.984)">
      <path id="Tracé_31" data-name="Tracé 31" d="M212.628,146.859l-4-44.875h43.94l-4.006,44.879-17.975,4.983Z" transform="translate(-208.627 -101.984)" fill="#e34e26"/>
      <path id="Tracé_32" data-name="Tracé 32" d="M1000,234.108V276.49l14.535-4.029,3.425-38.353Z" transform="translate(-978.03 -230.44)" fill="#ef662a"/>
      <path id="Tracé_33" data-name="Tracé 33" d="M503.468,432.378l1.484,16.644h19.077l-.64,7.139-6.142,1.661-6.131-1.658-.41-4.584h-5.525l.79,8.836,11.274,3.131,11.288-3.131,1.513-16.9h-20.06l-.5-5.636h21.063l.493-5.5Z" transform="translate(-495.283 -423.206)" fill="#fff"/>
      <g id="Groupe_3" data-name="Groupe 3" transform="translate(8.185 9.172)">
        <path id="Tracé_34" data-name="Tracé 34" d="M517.253,432.378H503.468l1.484,16.644h12.3v-5.5h-7.267l-.5-5.636h7.771Z" transform="translate(-503.468 -432.378)" fill="#ebebeb"/>
        <path id="Tracé_35" data-name="Tracé 35" d="M577.227,1130.257l-.007,0-6.131-1.658-.41-4.584h-5.525l.79,8.836,11.274,3.131.008,0Z" transform="translate(-563.443 -1104.816)" fill="#ebebeb"/>
      </g>
    </g>
  </g>
</svg>
