<svg xmlns="http://www.w3.org/2000/svg" width="49.169" height="49.169" viewBox="0 0 49.169 49.169">
  <g id="javascript-js-seeklogo.com" transform="translate(196 86)">
    <path id="Tracé_18" data-name="Tracé 18" d="M0,0H49.169V49.169H0Z" transform="translate(-196 -86)" fill="#f7df1e"/>
    <path id="Tracé_19" data-name="Tracé 19" d="M67.311,136.045l3.763-2.277c.726,1.287,1.386,2.376,2.97,2.376,1.518,0,2.476-.594,2.476-2.9V117.529h4.621V133.3c0,4.786-2.805,6.964-6.9,6.964a7.172,7.172,0,0,1-6.931-4.225" transform="translate(-250.383 -180.955)"/>
    <path id="Tracé_20" data-name="Tracé 20" d="M152.381,134.438l3.762-2.178a5.029,5.029,0,0,0,4.555,2.806c1.915,0,3.135-.957,3.135-2.277,0-1.584-1.254-2.145-3.367-3.069l-1.155-.5c-3.334-1.419-5.545-3.2-5.545-6.964,0-3.466,2.64-6.106,6.766-6.106a6.824,6.824,0,0,1,6.568,3.7l-3.6,2.31a3.146,3.146,0,0,0-2.97-1.98,2.01,2.01,0,0,0-2.211,1.98c0,1.386.858,1.947,2.838,2.806l1.155.5c3.928,1.683,6.139,3.4,6.139,7.261,0,4.159-3.267,6.436-7.657,6.436-4.291,0-7.063-2.046-8.416-4.72" transform="translate(-319.114 -179.844)"/>
  </g>
</svg>
