<svg xmlns="http://www.w3.org/2000/svg" width="52.225" height="52.224" viewBox="0 0 52.225 52.224">
  <g id="linkedin-seeklogo.com" transform="translate(-379.779 2)">
    <path id="Tracé_44" data-name="Tracé 44" d="M426.434,0h-41.1a3.52,3.52,0,0,0-3.559,3.476V44.745a3.522,3.522,0,0,0,3.559,3.48h41.1a3.529,3.529,0,0,0,3.57-3.48V3.476A3.527,3.527,0,0,0,426.434,0" fill="none" stroke="#fff" stroke-width="4"/>
    <path id="Tracé_45" data-name="Tracé 45" d="M403.607,17.839a4.147,4.147,0,1,1-4.148,4.146,4.148,4.148,0,0,1,4.148-4.146Zm-3.578,11.44h7.153V52.293h-7.153Z" transform="translate(-11.1 -11.2)" fill="#fff"/>
    <path id="Tracé_46" data-name="Tracé 46" d="M432.263,47.612h6.862v3.144h.1a7.515,7.515,0,0,1,6.768-3.717c7.243,0,8.58,4.767,8.58,10.963V70.626H447.42V59.434c0-2.67-.049-6.1-3.717-6.1-3.722,0-4.292,2.908-4.292,5.91V70.626h-7.148V47.612" transform="translate(-31.695 -29.532)" fill="#fff"/>
  </g>
</svg>
