<svg xmlns="http://www.w3.org/2000/svg" width="22.543" height="50.345" viewBox="0 0 22.543 50.345">
  <g id="mongodb-seeklogo.com" transform="translate(0 -0.203)">
    <g id="Groupe_2" data-name="Groupe 2" transform="translate(0 0.203)">
      <g id="Groupe_1" data-name="Groupe 1" transform="translate(0 0)">
        <path id="Tracé_12" data-name="Tracé 12" d="M27.415,62.068l-1.34-.458s.164-6.832-2.288-7.323c-1.635-1.9.262-80.42,6.146-.262a4.781,4.781,0,0,0-2.386,2.746,25.216,25.216,0,0,0-.131,5.3Z" transform="translate(-14.997 -11.724)" fill="#fff" fill-rule="evenodd"/>
        <path id="Tracé_13" data-name="Tracé 13" d="M27.415,62.068l-1.34-.458s.164-6.832-2.288-7.323c-1.635-1.9.262-80.42,6.146-.262a4.781,4.781,0,0,0-2.386,2.746,25.216,25.216,0,0,0-.131,5.3Z" transform="translate(-14.997 -11.724)" fill="#a6a385" fill-rule="evenodd"/>
        <path id="Tracé_14" data-name="Tracé 14" d="M33.33,44.182s11.736-7.715,8.99-23.767C39.672,8.745,33.428,4.92,32.741,3.449A16.494,16.494,0,0,1,31.27.572l.491,32.462c0,.033-1.014,9.938,1.569,11.148" transform="translate(-20.193 -0.442)" fill="#fff" fill-rule="evenodd"/>
        <path id="Tracé_15" data-name="Tracé 15" d="M33.33,44.182s11.736-7.715,8.99-23.767C39.672,8.745,33.428,4.92,32.741,3.449A16.494,16.494,0,0,1,31.27.572l.491,32.462c0,.033-1.014,9.938,1.569,11.148" transform="translate(-20.193 -0.442)" fill="#499d4a" fill-rule="evenodd"/>
        <path id="Tracé_16" data-name="Tracé 16" d="M10.391,44.369S-.626,36.85.028,23.61C.649,10.37,8.43,3.864,9.934,2.687A3.044,3.044,0,0,0,11.013.2c.686,1.471.556,22,.654,24.42.294,9.317-.523,17.98-1.275,19.745Z" transform="translate(0 -0.203)" fill="#fff" fill-rule="evenodd"/>
        <path id="Tracé_17" data-name="Tracé 17" d="M10.391,44.369S-.626,36.85.028,23.61C.649,10.37,8.43,3.864,9.934,2.687A3.044,3.044,0,0,0,11.013.2c.686,1.471.556,22,.654,24.42.294,9.317-.523,17.98-1.275,19.745Z" transform="translate(0 -0.203)" fill="#58aa50" fill-rule="evenodd"/>
      </g>
    </g>
  </g>
</svg>
