<svg id="nodejs-seeklogo.com" xmlns="http://www.w3.org/2000/svg" width="42.179" height="47.528" viewBox="0 0 42.179 47.528">
  <path id="Tracé_9" data-name="Tracé 9" d="M21.09,47.528a3.829,3.829,0,0,1-1.834-.48L13.448,43.6c-.873-.48-.437-.655-.175-.742a10.578,10.578,0,0,0,2.62-1.179.4.4,0,0,1,.437.044l4.454,2.663a.555.555,0,0,0,.524,0L38.73,34.3a.5.5,0,0,0,.262-.48V13.689a.5.5,0,0,0-.262-.48L21.308,3.166a.555.555,0,0,0-.524,0L3.362,13.208a.548.548,0,0,0-.262.48V33.818a.548.548,0,0,0,.262.48l4.759,2.751c2.576,1.31,4.192-.218,4.192-1.747V15.435a.531.531,0,0,1,.524-.524h2.227a.531.531,0,0,1,.524.524V35.3c0,3.449-1.878,5.458-5.152,5.458a7.49,7.49,0,0,1-4.017-1.092l-4.585-2.62A3.685,3.685,0,0,1,0,33.861V13.732a3.685,3.685,0,0,1,1.834-3.187L19.256.458a3.9,3.9,0,0,1,3.668,0L40.345,10.545a3.685,3.685,0,0,1,1.834,3.187V33.861a3.685,3.685,0,0,1-1.834,3.187L22.923,47.135a4.469,4.469,0,0,1-1.834.393ZM26.46,33.687c-7.641,0-9.213-3.493-9.213-6.462a.531.531,0,0,1,.524-.524h2.271a.449.449,0,0,1,.48.437c.349,2.314,1.354,3.449,5.982,3.449,3.668,0,5.24-.83,5.24-2.794,0-1.135-.437-1.965-6.157-2.532-4.759-.48-7.728-1.528-7.728-5.327,0-3.537,2.969-5.633,7.947-5.633,5.589,0,8.34,1.921,8.689,6.113a.7.7,0,0,1-.131.393.539.539,0,0,1-.349.175H31.743a.512.512,0,0,1-.48-.393c-.524-2.4-1.878-3.187-5.458-3.187-4.017,0-4.5,1.4-4.5,2.445,0,1.266.568,1.659,5.982,2.358,5.371.7,7.9,1.7,7.9,5.458-.044,3.842-3.187,6.026-8.733,6.026Z" transform="translate(0 0)" fill="#539e43"/>
</svg>
