<svg xmlns="http://www.w3.org/2000/svg" width="48.067" height="42.805" viewBox="0 0 48.067 42.805">
  <g id="logo" transform="translate(-175.7 -78)">
    <path id="Tracé_7" data-name="Tracé 7" d="M223.767,99.408c0-3.184-3.988-6.2-10.1-8.073,1.411-6.231.784-11.189-1.979-12.776a4.3,4.3,0,0,0-2.195-.549v2.185a2.269,2.269,0,0,1,1.117.255c1.332.764,1.911,3.674,1.46,7.417-.108.921-.284,1.891-.5,2.88a47.479,47.479,0,0,0-6.221-1.068,47.791,47.791,0,0,0-4.076-4.9c3.194-2.969,6.192-4.6,8.23-4.6V78c-2.694,0-6.221,1.92-9.788,5.251-3.566-3.312-7.093-5.212-9.788-5.212v2.185c2.028,0,5.036,1.617,8.23,4.566a46.272,46.272,0,0,0-4.046,4.889,45.75,45.75,0,0,0-6.231,1.078c-.225-.98-.392-1.93-.509-2.841-.46-3.743.108-6.653,1.43-7.427a2.18,2.18,0,0,1,1.127-.255V78.049a4.369,4.369,0,0,0-2.214.549c-2.753,1.587-3.37,6.535-1.95,12.747-6.094,1.881-10.062,4.889-10.062,8.063s3.988,6.2,10.1,8.073c-1.411,6.231-.784,11.189,1.979,12.776a4.307,4.307,0,0,0,2.2.549c2.694,0,6.221-1.92,9.788-5.251,3.566,3.312,7.093,5.212,9.788,5.212a4.369,4.369,0,0,0,2.214-.549c2.753-1.587,3.37-6.535,1.95-12.747,6.074-1.871,10.042-4.889,10.042-8.063ZM211.01,92.873c-.362,1.264-.813,2.567-1.323,3.87-.4-.784-.823-1.568-1.283-2.351s-.931-1.548-1.411-2.293C208.385,92.3,209.727,92.559,211.01,92.873Zm-4.487,10.434c-.764,1.323-1.548,2.577-2.361,3.743-1.46.127-2.939.2-4.428.2s-2.959-.069-4.409-.186q-1.22-1.749-2.371-3.723-1.117-1.925-2.038-3.9c.607-1.313,1.293-2.626,2.028-3.909.764-1.323,1.548-2.577,2.361-3.743,1.46-.127,2.939-.2,4.428-.2s2.959.069,4.409.186q1.22,1.749,2.371,3.723,1.117,1.925,2.038,3.9c-.617,1.313-1.293,2.626-2.028,3.909Zm3.165-1.274c.529,1.313.98,2.626,1.352,3.9-1.283.314-2.636.578-4.037.784.48-.754.96-1.528,1.411-2.322s.872-1.577,1.274-2.361Zm-9.935,10.454a40.39,40.39,0,0,1-2.724-3.135c.882.039,1.783.069,2.694.069s1.832-.02,2.724-.069A38.241,38.241,0,0,1,199.753,112.487Zm-7.289-5.771c-1.391-.206-2.733-.46-4.017-.774.363-1.264.813-2.567,1.323-3.87.4.784.823,1.568,1.283,2.351S191.984,105.972,192.464,106.716Zm7.24-20.389a40.393,40.393,0,0,1,2.724,3.135c-.882-.039-1.783-.069-2.694-.069s-1.832.02-2.724.069A38.244,38.244,0,0,1,199.7,86.328Zm-7.25,5.771c-.48.754-.96,1.528-1.411,2.322s-.872,1.568-1.274,2.351c-.529-1.313-.98-2.626-1.352-3.9,1.283-.3,2.636-.568,4.037-.774Zm-8.867,12.266c-3.468-1.479-5.712-3.419-5.712-4.958s2.244-3.488,5.712-4.958c.843-.363,1.764-.686,2.714-.99a47.054,47.054,0,0,0,2.2,5.967,46.388,46.388,0,0,0-2.175,5.937C185.36,105.061,184.439,104.728,183.587,104.365Zm5.271,14c-1.332-.764-1.911-3.674-1.46-7.417.108-.921.284-1.891.5-2.88a47.482,47.482,0,0,0,6.221,1.068,47.793,47.793,0,0,0,4.076,4.9c-3.194,2.969-6.192,4.6-8.23,4.6a2.338,2.338,0,0,1-1.107-.265ZM212.1,110.9c.46,3.743-.108,6.653-1.43,7.427a2.18,2.18,0,0,1-1.127.255c-2.028,0-5.036-1.617-8.23-4.566a46.275,46.275,0,0,0,4.046-4.889,45.751,45.751,0,0,0,6.231-1.078A27.432,27.432,0,0,1,212.1,110.9Zm3.772-6.535c-.843.363-1.764.686-2.714.99a47.053,47.053,0,0,0-2.2-5.967,46.393,46.393,0,0,0,2.175-5.937c.97.3,1.891.637,2.753,1,3.468,1.479,5.712,3.419,5.712,4.958s-2.253,3.488-5.722,4.958ZM189.916,78.039Z" fill="#61dafb"/>
    <circle id="Ellipse_2" data-name="Ellipse 2" cx="4.477" cy="4.477" r="4.477" transform="translate(195.246 94.93)" fill="#61dafb"/>
    <path id="Tracé_8" data-name="Tracé 8" d="M520.5,78.1Z" transform="translate(-311.018 -0.09)" fill="#61dafb"/>
  </g>
</svg>
