<svg xmlns="http://www.w3.org/2000/svg" width="66.958" height="50.214" viewBox="0 0 66.958 50.214">
  <g id="sass-seeklogo.com" transform="translate(-0.454 -0.454)">
    <path id="Tracé_21" data-name="Tracé 21" d="M58.11,29.32a13.863,13.863,0,0,0-6.066,1.406,12.783,12.783,0,0,1-1.358-3.143,8.441,8.441,0,0,1-.122-2.642,23.463,23.463,0,0,1,.795-2.85c-.012-.122-.147-.7-1.492-.709s-2.507.257-2.642.611a14.758,14.758,0,0,0-.563,1.994c-.232,1.223-2.691,5.589-4.1,7.876a8.5,8.5,0,0,1-.929-2.3,8.441,8.441,0,0,1-.122-2.642,23.462,23.462,0,0,1,.795-2.85c-.012-.122-.147-.7-1.492-.709s-2.507.257-2.642.612-.281,1.186-.563,1.994-3.547,8.1-4.4,9.98c-.44.966-.819,1.737-1.088,2.263h0a.557.557,0,0,1-.049.1c-.232.453-.367.7-.367.7v.012c-.183.33-.379.636-.477.636a4.092,4.092,0,0,1,.024-2.079c.489-2.532,1.651-6.47,1.639-6.6,0-.073.22-.758-.758-1.113a1.214,1.214,0,0,0-1.382.232c-.086,0-.147.208-.147.208s1.064-4.427-2.03-4.427c-1.932,0-4.6,2.116-5.919,4.024-.832.453-2.605,1.419-4.5,2.458-.722.4-1.468.807-2.165,1.186-.049-.049-.1-.11-.147-.159-3.742-4-10.665-6.824-10.371-12.193.11-1.957.783-7.093,13.294-13.331,10.3-5.075,18.492-3.669,19.911-.55,2.03,4.452-4.391,12.719-15.031,13.918-4.06.453-6.188-1.113-6.727-1.7-.563-.612-.648-.648-.856-.526-.342.183-.122.734,0,1.052a6.28,6.28,0,0,0,3.84,3.021c1.957.636,6.714.991,12.475-1.235,6.445-2.495,11.484-9.429,10-15.239C40.9.7,31.118-1.243,21.86,2.047,16.356,4,10.388,7.086,6.1,11.1,1,15.867.188,20.013.518,21.75,1.7,27.914,10.2,31.925,13.6,34.9c-.171.1-.33.183-.465.257-1.7.844-8.182,4.232-9.8,7.815-1.835,4.06.294,6.971,1.7,7.362A10.459,10.459,0,0,0,16.307,45.77a11.3,11.3,0,0,0,1-10.408.256.256,0,0,0-.049-.073c.44-.257.893-.526,1.333-.783.868-.514,1.724-.991,2.458-1.382a16.119,16.119,0,0,0-.868,4.452c-.183,2.3.758,5.283,1.993,6.457a2.2,2.2,0,0,0,1.614.526c1.443,0,2.091-1.2,2.813-2.617.881-1.737,1.676-3.755,1.676-3.755s-.991,5.455,1.7,5.455c.978,0,1.969-1.272,2.409-1.92v.012s.024-.037.073-.122l.159-.257V41.33c.391-.685,1.272-2.238,2.581-4.819,1.688-3.327,3.314-7.485,3.314-7.485a21.253,21.253,0,0,0,.648,2.7A25.452,25.452,0,0,0,40.56,34.86c-.391.55-.636.856-.636.856l.012.012c-.318.416-.66.868-1.04,1.309a38.986,38.986,0,0,0-3.143,3.938,1.069,1.069,0,0,0,.294,1.443,2.668,2.668,0,0,0,1.639.269,7.526,7.526,0,0,0,2.458-.563,8.25,8.25,0,0,0,2.116-1.113,4.735,4.735,0,0,0,2.03-4.17,8.42,8.42,0,0,0-.77-2.947c.122-.171.232-.342.355-.514a56.025,56.025,0,0,0,3.669-6.335,21.254,21.254,0,0,0,.648,2.7,18.1,18.1,0,0,0,1.186,2.691,11.625,11.625,0,0,0-3.571,4.611c-.77,2.226-.171,3.229.966,3.461a3.409,3.409,0,0,0,1.786-.367,8.133,8.133,0,0,0,2.263-1.162c1.309-.966,2.568-2.311,2.495-4.134a7.815,7.815,0,0,0-.563-2.446,12.809,12.809,0,0,1,6.494-.746c5.822.685,6.971,4.317,6.751,5.846a3.869,3.869,0,0,1-1.847,2.617c-.4.257-.538.342-.5.526.049.269.245.257.587.208A4.547,4.547,0,0,0,67.4,36.8c.183-3.6-3.241-7.521-9.295-7.485ZM13.2,44.461c-1.932,2.1-4.623,2.9-5.785,2.226-1.247-.722-.758-3.828,1.614-6.054a30.809,30.809,0,0,1,4.537-3.388c.281-.171.7-.416,1.2-.722.086-.049.135-.073.135-.073h0l.294-.183A8.353,8.353,0,0,1,13.2,44.461ZM27.266,34.9c-.673,1.639-2.079,5.834-2.935,5.6-.734-.2-1.186-3.376-.147-6.519a14.809,14.809,0,0,1,2.287-4.195c1.052-1.174,2.214-1.565,2.495-1.088.355.624-1.284,5.173-1.7,6.2ZM38.872,40.45c-.281.147-.55.245-.673.171-.086-.049.122-.245.122-.245s1.455-1.565,2.03-2.275c.33-.416.722-.905,1.137-1.455V36.8c0,1.871-1.81,3.131-2.617,3.645Zm8.952-2.042c-.208-.147-.171-.636.526-2.165a8.149,8.149,0,0,1,1.993-2.568,3.462,3.462,0,0,1,.2,1.125,3.7,3.7,0,0,1-2.715,3.608Z" transform="translate(0 0)" fill="#cd6799"/>
  </g>
</svg>
