<svg xmlns="http://www.w3.org/2000/svg" width="1791.214" height="579.191" viewBox="0 0 1791.214 579.191" style="">
  <defs>
    <style>
      .cls-1 {
        fill: none;
        stroke: rgba(0,255,255,0.5);
        stroke-width: 5px;
      }
    </style>
  </defs>
  <g id="Groupe_7" data-name="Groupe 7" transform="translate(-43.269 -457.337)">
    <path id="Union_1" data-name="Union 1" class="cls-1 IxjkjtOT_0" d="M993.037,557.616a107.06,107.06,0,0,1-26.792-22.5v34.939H605.915V352.73L532.777,570.057H459.839l-75.13-225.081H278.054v58.312H382.9v49.575H278.054v65.91H401.9v51.285H211.385v-89.3a131.383,131.383,0,0,1-10.172,25,117.334,117.334,0,0,1-45.206,47.105q-29.156,17-65.056,17.19H-.031V293.5H89.052q36.658,0,65.91,16.619a116.822,116.822,0,0,1,45.68,46.915,133.233,133.233,0,0,1,10.742,26.07V293.5h230.03L496.308,494.84,551.39,293.5h298.8v225.27H954.563q-2.186-3.682-4.168-7.6-15.29-30.2-16.05-69.328V426.272q0-40.647,14.91-71.7t42.736-47.96q27.826-16.9,63.346-16.9,35.139,0,62.681,16.715T1160.85,354a141.033,141.033,0,0,1,9.793,26.049V293.5H1281q31.721,0,56.128,11.681t37.8,33.24a86.786,86.786,0,0,1,8.842,19V293.5h286.442q49.2,0,76.927,21.843t27.732,61.731q0,28.871-11.682,47.865t-36.563,30.771l57.742,111.5v2.849h-71.418l-48.815-97.63h-36.089v97.63H1383.767V416.845a77.543,77.543,0,0,1-24.418,35.164q-28.966,24.216-79.491,24.217h-42.547v93.831h-66.669V483.765a142.764,142.764,0,0,1-9.318,25.321q-15.005,31.15-42.642,47.96t-62.966,16.81Q1020.388,573.856,993.037,557.616Zm9.307-140.461-.19,20.323q0,40.648,13.486,62.491t40.078,21.843q25.263,0,38.938-21.463t13.866-61.731V425.892q0-41.218-13.771-62.586t-39.413-21.369Q1005.193,341.937,1002.344,417.155Zm448.093,101.618h110.937v-173.8H1450.436v58.312h104.848v49.575H1450.436Zm-777.852,0H783.52v-173.8H672.584v58.312H777.432v49.575H672.584Zm-605.946,0H89.812q28.681,0,44.067-20.418t15.385-60.686V425.7q0-40.079-15.385-60.4T89.052,344.976H66.639Zm1170.673-94.021H1281q19.375,0,29.536-9.687t10.162-27.352q0-19.374-10.447-30.96t-28.49-11.776h-44.447Zm390.731-3.8h42.167q18.994,0,28.587-9.971t9.592-27.827q0-17.854-9.688-28.016t-28.491-10.162h-42.167ZM1571.929,276.22H1394.323V65.847L1349.677,276.22h-69.139L1243.5,118.568,1207.22,276.22h-68.949L1079.39-.335h66.29l31.72,173.417L1215.388-.335h56.6l38.558,173.417L1342.269-.335h329q53.374,0,81.2,19.563t27.826,56.793q0,21.464-9.877,36.659t-29.061,22.413q21.653,5.7,33.24,21.274t11.587,37.988q0,40.647-25.737,61.066t-76.261,20.8Zm66.669-51.285h43.687q18.044,0,27.731-8.262t9.688-23.268q0-34.569-34.38-34.76H1638.6Zm-177.606,0h110.937V51.139H1460.993v58.312h104.848v49.575H1460.993ZM1638.6,114.96h34.76q21.843-.19,31.15-7.978T1713.815,84q0-17.474-10.067-25.168t-32.48-7.692H1638.6Z" transform="translate(45.799 460.172)"></path>
  </g>
<style data-made-with="vivus-instant">.IxjkjtOT_0{stroke-dasharray:14592 14594;stroke-dashoffset:14593;animation:IxjkjtOT_draw_0 6200ms ease-in-out 0ms infinite,IxjkjtOT_fade 6200ms linear 0ms infinite;}@keyframes IxjkjtOT_draw{100%{stroke-dashoffset:0;}}@keyframes IxjkjtOT_fade{0%{stroke-opacity:1;}98.38709677419355%{stroke-opacity:1;}100%{stroke-opacity:0;}}@keyframes IxjkjtOT_draw_0{1.6129032258064515%{stroke-dashoffset: 14593}98.38709677419355%{ stroke-dashoffset: 0;}100%{ stroke-dashoffset: 0;}}</style></svg>
