<svg xmlns="http://www.w3.org/2000/svg"
    width="1258.515"
    height="434.843"
    viewBox="0 0 1258.515 434.843"
    style="">
    <defs>
        <style>
      .cls-1 {
        fill: none;
        stroke: aqua;
        stroke-linecap: round;
        stroke-linejoin: round;
        stroke-width: 3px;
        opacity: .1
      }
        </style>
    </defs>
    <g id="Groupe_8" data-name="Groupe 8" transform="translate(-1081.415 1078.04)">
        <path id="Union_2"
            data-name="Union 2"
            class="cls-1 mtGirnrE_0"
            d="M709.344,480.821a79.459,79.459,0,0,1-12.018-8.736V490h-258.1V352.685L393.017,490H339.2l-55.43-166.062h-70.94V366.96H290.19v36.576H212.834v48.627H304.2V490H163.646V443.018a86.515,86.515,0,0,1-33.108,34.3q-21.512,12.541-48,12.682H15.415V285.961H81.14q27.046,0,48.627,12.263a86.19,86.19,0,0,1,33.7,34.614l.176.327v-47.2H325.61l40.5,148.545L406.75,285.961H611.7v166.2h69.257q-1.612-2.715-3.075-5.605-11.282-22.282-11.842-51.15V383.917q0-29.989,11-52.9t31.531-35.384q20.529-12.471,46.735-12.472,25.925,0,46.246,12.332,19.851,12.048,31.076,34.061v-43.59H914.05q23.4,0,41.411,8.618a65.222,65.222,0,0,1,26.663,22.627V285.961h203.585q36.3,0,56.756,16.116t20.46,45.544q0,21.3-8.618,35.314t-26.977,22.7l42.6,82.26V490h-52.691l-36.014-72.03H1154.6V490H982.123V392a60.775,60.775,0,0,1-10.266,10.91q-21.372,17.867-58.648,17.868h-31.39V490H832.63V446.786Q821.641,468.48,802.045,480.4q-20.39,12.4-46.455,12.4T709.344,480.821Zm6.867-103.631-.14,14.995q0,29.989,9.95,46.1t29.569,16.116q18.638,0,28.728-15.836t10.229-45.544v-9.39q0-30.409-10.16-46.174T755.309,321.7Q718.313,321.7,716.211,377.19Zm315.1,74.973h74.1V403.536h-74.1Zm-542.9,0h74.1V403.536h-74.1Zm-423.813,0H81.7q21.161,0,32.512-15.064t11.351-44.774V383.5q0-29.569-11.351-44.564T81.14,323.938H64.6ZM881.819,382.8H914.05q14.294,0,21.792-7.147t7.5-20.18q0-14.294-7.708-22.842t-21.02-8.689H881.819Zm272.778-2.8h31.11q14.014,0,21.091-7.358t7.078-20.53q0-13.172-7.148-20.67t-21.02-7.5H1154.6ZM1031.311,366.96h74.1V323.938h-74.1Zm-542.9,0h74.1V323.938h-74.1ZM1106.835,266H983.549V147.3L958.358,266h-51.01L880.021,149.686,853.255,266h-50.87L758.943,61.961h48.908l23.4,127.945L859.28,61.961h41.761l28.448,127.945,23.4-127.945h227.235q39.378,0,59.908,14.434t20.53,41.9q0,15.835-7.287,27.046t-21.441,16.537q15.976,4.2,24.524,15.7t8.548,28.028q0,29.989-18.989,45.054T1189.656,266Zm49.188-37.837h32.232q13.312,0,20.46-6.1t7.147-17.167q0-25.5-25.365-25.645h-34.474Zm-123.286,0h74.1V179.536h-74.1Zm123.286-81.14h25.646q16.115-.14,22.982-5.886t6.866-16.956q0-12.893-7.427-18.569t-23.963-5.675h-24.1Zm-123.286-4.064h74.1V99.938h-74.1Z"
            transform="translate(1068 -1138)"></path>
    </g>
    <style data-made-with="vivus-instant">.mtGirnrE_0{stroke-dasharray:10026 10028;stroke-dashoffset:10027;animation:mtGirnrE_draw_0 9000ms ease-in-out 0ms infinite,mtGirnrE_fade 9000ms linear 0ms infinite;}@keyframes mtGirnrE_draw{100%{stroke-dashoffset:0;}}@keyframes mtGirnrE_fade{0%{stroke-opacity:1;}94.44444444444444%{stroke-opacity:1;}100%{stroke-opacity:0;}}@keyframes mtGirnrE_draw_0{5.555555555555555%{stroke-dashoffset: 10027}72.22222222222221%{ stroke-dashoffset: 0;}100%{ stroke-dashoffset: 0;}}</style>
</svg>